# xmcd CD database file
#
# Track frame offsets:
#	150
#	18790
#	35096
#	51650
#	65782
#	82263
#	99533
#	122047
#	138067
#	154145
#	170223
#	189060
#	206214
#	229358
#	248164
#	266428
#	282853
#	301730
#	324358
#
# Disc length: 4556 seconds
#
# Revision: 2
# Processed by: cddbd v1.5.2PL0 Copyright (c) Steve Scherf et al.
# Submitted via: CDex 1.51
#
DISCID=1411ca13
DTITLE=Various Artist - ZM-PCP-25
DYEAR=1900
DGENRE=Blues
TTITLE0=5 Seconds Of Summer - Amnesia
TTITLE1=Train - Angel In Blue Jeans
TTITLE2=Iggy Azalea Ft Rita Ora - Black Widow
TTITLE3=Charli XCX - Boom Clap
TTITLE4=Train - Cadillac Cadillac
TTITLE5=Sia - Chandelier
TTITLE6=Sigma Ft Paloma Faith - Changing
TTITLE7=Pharrell Williams - Come Get It Bae (for solo male)
TTITLE8=Ella Eyre - Comeback (clean)
TTITLE9=Ella Eyre - Comeback (explicit
TTITLE10=Sam Smith - I'm Not The Only One
TTITLE11=Royal Blood - Little Monster
TTITLE12=Professor Green Ft Tori Kelly - Lullaby
TTITLE13=Royal Blood - Out Of The Black
TTITLE14=Taylor Swift - Shake It Off
TTITLE15=Becky G - Shower
TTITLE16=Script The - Superheroes
TTITLE17=Ed Sheeran - Thinking Out Loud
TTITLE18=Gorgon City Ft Zak Abel - Umissable
EXTD=
EXTT0=
EXTT1=
EXTT2=
EXTT3=
EXTT4=
EXTT5=
EXTT6=
EXTT7=
EXTT8=
EXTT9=
EXTT10=
EXTT11=
EXTT12=
EXTT13=
EXTT14=
EXTT15=
EXTT16=
EXTT17=
EXTT18=
PLAYORDER=
